<?xml version="1.0" encoding="utf-8"?>
<svg version="1.1" id="logo_centrogeo_wide" xmlns="http://www.w3.org/2000/svg" xmlns:xlink="http://www.w3.org/1999/xlink" x="0px" y="0px" viewBox="0 0 197 68" style="enable-background:new 0 0 197 68;" xml:space="preserve">
<style type="text/css">
	.st0{fill-rule:evenodd;clip-rule:evenodd;fill:#6E3C14;}
	.st1{fill-rule:evenodd;clip-rule:evenodd;fill:#DC7828;}
	.st2{fill-rule:evenodd;clip-rule:evenodd;fill:#FFFFFF;}
	.st3{fill-rule:evenodd;clip-rule:evenodd;fill:#6E3C14;fill-opacity:0.8;}
	.st4{fill-rule:evenodd;clip-rule:evenodd;fill:#A54119;}
	.st5{fill-rule:evenodd;clip-rule:evenodd;fill:url(#gradient);}
</style>
<path class="st0" d="M81.906,42.801v-5.114h-0.822l-1.358,0.422v0.604l1.26-0.204v4.292L81.906,42.801L81.906,42.801z
	 M84.983,37.596c-1.185,0-1.961,0.686-1.961,1.72c0,1.071,0.589,1.659,1.826,1.659c0.49,0,0.943-0.128,1.328-0.302
	c-0.09,0.762-0.43,1.569-1.659,1.569c-0.302,0-0.664-0.053-1.003-0.128v0.664c0.272,0.068,0.671,0.12,1.018,0.12
	c1.727,0,2.497-1.018,2.497-2.852C87.028,38.772,86.589,37.596,84.983,37.596L84.983,37.596z M85.036,40.319
	c-0.875,0-1.131-0.452-1.131-1.048c0-0.634,0.392-0.996,1.033-0.996c0.86,0,1.275,0.482,1.275,1.697v0.038
	C85.918,40.168,85.534,40.319,85.036,40.319L85.036,40.319z M89.932,38.357c0-0.589-0.467-0.996-1.078-0.996
	c-0.626,0-1.078,0.43-1.078,1.011c0,0.581,0.452,0.996,1.063,0.996C89.464,39.368,89.932,38.938,89.932,38.357L89.932,38.357z
	 M89.433,38.372c0,0.369-0.287,0.551-0.589,0.551c-0.309,0-0.581-0.189-0.581-0.551c0-0.354,0.264-0.558,0.581-0.558
	C89.162,37.815,89.433,38.018,89.433,38.372L89.433,38.372z M92.647,42.801v-5.114h-0.822l-1.358,0.422v0.604l1.26-0.204v4.292
	L92.647,42.801L92.647,42.801z M97.293,38.44v-0.746H93.71v0.746h2.738c-0.996,1.237-1.652,2.775-1.924,4.36h0.905
	C95.626,41.488,96.343,39.647,97.293,38.44L97.293,38.44z M98.582,39.467l0.09-1.984h-0.733l0.098,1.984H98.582L98.582,39.467z
	 M99.971,39.73v0.686h0.498c1.048,0,1.614,0.309,1.614,0.89c0,0.566-0.566,0.898-1.524,0.898c-0.415,0-0.814-0.045-1.2-0.15v0.686
	c0.354,0.098,0.814,0.158,1.252,0.158c1.509,0,2.391-0.581,2.391-1.577c0-0.686-0.528-1.154-1.486-1.297v-0.023
	c0.814-0.105,1.29-0.551,1.29-1.185c0-0.784-0.664-1.222-1.863-1.222c-0.581,0-1.056,0.075-1.532,0.227v0.671
	c0.452-0.143,0.898-0.219,1.335-0.219c0.746,0,1.139,0.242,1.139,0.694c0,0.482-0.521,0.761-1.47,0.761L99.971,39.73L99.971,39.73z
	 M108.193,40.236c0-1.727-0.769-2.648-2.225-2.648c-1.455,0-2.233,0.928-2.233,2.648c0,1.75,0.777,2.67,2.24,2.67
	C107.408,42.906,108.193,41.963,108.193,40.236L108.193,40.236z M107.272,40.281c0,1.305-0.407,1.893-1.305,1.893
	c-0.928,0-1.32-0.574-1.32-1.954c0-1.305,0.415-1.901,1.32-1.901C106.865,38.32,107.272,38.931,107.272,40.281L107.272,40.281z
	 M109.639,39.467l0.09-1.984h-0.733l0.098,1.984H109.639L109.639,39.467z M110.884,39.467l0.09-1.984h-0.733l0.098,1.984H110.884
	L110.884,39.467z M116.075,42.801h0.799v-5.106h-0.898v3.613h-0.007l-2.867-3.613h-0.936v5.106l0.898,0.008v-3.779h0.008
	L116.075,42.801L116.075,42.801z M126.41,37.596c-1.185,0-1.961,0.686-1.961,1.72c0,1.071,0.589,1.659,1.826,1.659
	c0.49,0,0.943-0.128,1.328-0.302c-0.09,0.762-0.43,1.569-1.659,1.569c-0.302,0-0.664-0.053-1.003-0.128v0.664
	c0.272,0.068,0.671,0.12,1.018,0.12c1.727,0,2.497-1.018,2.497-2.852C128.454,38.772,128.017,37.596,126.41,37.596L126.41,37.596z
	 M126.463,40.319c-0.875,0-1.131-0.452-1.131-1.048c0-0.634,0.392-0.996,1.033-0.996c0.86,0,1.275,0.482,1.275,1.697v0.038
	C127.345,40.168,126.961,40.319,126.463,40.319L126.463,40.319z M131.094,37.596c-1.185,0-1.961,0.686-1.961,1.72
	c0,1.071,0.589,1.659,1.826,1.659c0.49,0,0.943-0.128,1.328-0.302c-0.09,0.762-0.43,1.569-1.659,1.569
	c-0.302,0-0.664-0.053-1.003-0.128v0.664c0.272,0.068,0.671,0.12,1.018,0.12c1.727,0,2.497-1.018,2.497-2.852
	C133.138,38.772,132.701,37.596,131.094,37.596L131.094,37.596z M131.147,40.319c-0.875,0-1.131-0.452-1.131-1.048
	c0-0.634,0.392-0.996,1.033-0.996c0.86,0,1.275,0.482,1.275,1.697v0.038C132.029,40.168,131.645,40.319,131.147,40.319
	L131.147,40.319z M136.042,38.357c0-0.589-0.467-0.996-1.078-0.996c-0.626,0-1.078,0.43-1.078,1.011
	c0,0.581,0.452,0.996,1.063,0.996C135.575,39.368,136.042,38.938,136.042,38.357L136.042,38.357z M135.545,38.372
	c0,0.369-0.287,0.551-0.589,0.551c-0.309,0-0.581-0.189-0.581-0.551c0-0.354,0.264-0.558,0.581-0.558S135.545,38.018,135.545,38.372
	L135.545,38.372z M138.757,42.801v-5.114h-0.823l-1.358,0.422v0.604l1.26-0.204v4.292L138.757,42.801L138.757,42.801z M140.5,39.73
	v0.686h0.498c1.048,0,1.614,0.309,1.614,0.89c0,0.566-0.566,0.898-1.524,0.898c-0.415,0-0.814-0.045-1.2-0.15v0.686
	c0.354,0.098,0.814,0.158,1.252,0.158c1.509,0,2.391-0.581,2.391-1.577c0-0.686-0.528-1.154-1.486-1.297v-0.023
	c0.814-0.105,1.29-0.551,1.29-1.185c0-0.784-0.664-1.222-1.863-1.222c-0.581,0-1.056,0.075-1.532,0.227v0.671
	c0.452-0.143,0.898-0.219,1.335-0.219c0.746,0,1.139,0.242,1.139,0.694c0,0.482-0.521,0.761-1.47,0.761L140.5,39.73L140.5,39.73z
	 M144.889,39.467l0.09-1.984h-0.733l0.098,1.984H144.889L144.889,39.467z M147.742,42.801v-5.114h-0.822l-1.358,0.422v0.604
	l1.26-0.204v4.292L147.742,42.801L147.742,42.801z M152.388,38.44v-0.746h-3.583v0.746h2.738c-0.996,1.237-1.652,2.775-1.924,4.36
	h0.905C150.721,41.488,151.437,39.647,152.388,38.44L152.388,38.44z M153.677,39.467l0.09-1.984h-0.733l0.098,1.984H153.677
	L153.677,39.467z M154.92,39.467l0.09-1.984h-0.733l0.098,1.984H154.92L154.92,39.467z M158.679,42.906
	c1.909,0,2.821-1.17,2.821-2.67c0-1.509-0.86-2.648-2.79-2.648c-1.931,0-2.829,1.192-2.829,2.693
	C155.88,41.835,156.732,42.906,158.679,42.906L158.679,42.906z M158.686,42.174c-1.328,0-1.871-0.853-1.871-1.924
	c0-1.026,0.536-1.931,1.871-1.931c1.343,0,1.871,0.868,1.871,1.931C160.557,41.292,160.029,42.174,158.686,42.174L158.686,42.174z
	 M168.833,37.928v0.709c0.46-0.189,1.026-0.347,1.622-0.347c0.619,0,1.116,0.234,1.116,0.845c0,0.521-0.272,1.033-1.328,1.841
	l-1.47,1.146v0.679h3.907v-0.746h-2.7v-0.015l1.041-0.769c0.913-0.671,1.47-1.312,1.47-2.188c0-1.048-0.838-1.494-1.931-1.494
	C169.927,37.588,169.368,37.716,168.833,37.928L168.833,37.928z M173.932,40.9l1.75-3.206h-0.86l-1.757,3.146v0.783h2.58V42.8h0.868
	v-1.177h0.905v-0.724h-0.905v-1.252h-0.679l-0.189,1.252h-1.713V40.9z M181.716,38.818c0-0.731-0.709-1.23-1.75-1.23
	c-1.123,0-1.841,0.543-1.841,1.38c0,0.513,0.302,0.905,0.958,1.23c-0.754,0.309-1.139,0.762-1.139,1.358
	c0,0.799,0.777,1.35,1.909,1.35c1.222,0,2.036-0.589,2.036-1.47c0-0.574-0.369-0.966-1.222-1.328
	C181.369,39.799,181.716,39.376,181.716,38.818L181.716,38.818z M178.993,38.886c0-0.415,0.377-0.679,0.951-0.679
	c0.566,0,0.966,0.279,0.966,0.686c0,0.392-0.287,0.739-0.792,0.973C179.257,39.497,178.993,39.263,178.993,38.886L178.993,38.886z
	 M181.015,41.541c0,0.422-0.422,0.701-1.108,0.701c-0.701,0-1.131-0.302-1.131-0.792c0-0.392,0.279-0.716,0.838-0.958
	C180.592,40.862,181.015,41.134,181.015,41.541L181.015,41.541z M184.499,37.596c-1.185,0-1.961,0.686-1.961,1.72
	c0,1.071,0.589,1.659,1.826,1.659c0.49,0,0.943-0.128,1.328-0.302c-0.09,0.762-0.43,1.569-1.659,1.569
	c-0.302,0-0.664-0.053-1.003-0.128v0.664c0.272,0.068,0.671,0.12,1.018,0.12c1.727,0,2.497-1.018,2.497-2.852
	C186.543,38.772,186.106,37.596,184.499,37.596L184.499,37.596z M184.552,40.319c-0.875,0-1.131-0.452-1.131-1.048
	c0-0.634,0.392-0.996,1.033-0.996c0.86,0,1.275,0.482,1.275,1.697v0.038C185.435,40.168,185.05,40.319,184.552,40.319
	L184.552,40.319z M192.698,38.908c-0.551,0-1.048,0.204-1.509,0.611c-0.227-0.392-0.679-0.611-1.29-0.611
	c-0.482,0-0.973,0.189-1.425,0.551h-0.015v-0.475h-0.799V42.8h0.868v-2.889c0.302-0.219,0.656-0.332,1.011-0.332
	c0.626,0,0.928,0.294,0.928,0.905V42.8h0.868v-2.678c0-0.075-0.015-0.143-0.03-0.204c0.287-0.212,0.664-0.339,1.033-0.339
	c0.634,0,0.928,0.317,0.928,0.905V42.8h0.868v-2.466C194.131,39.391,193.641,38.908,192.698,38.908z"/>
<path class="st0" d="M167.107,17.542v-2.233c-1.206-0.468-2.59-0.803-4.599-0.803c-5.581,0-9.108,2.813-9.108,8.014
	c0,5.536,3.84,7.724,8.506,7.724c2.366,0,4.331-0.379,5.871-0.982v-7.277h-2.656v5.849c-0.759,0.156-1.674,0.268-2.925,0.268
	c-3.661,0-6.027-1.785-6.027-5.714c0-3.505,2.098-5.715,6.719-5.715C164.585,16.671,165.991,17.096,167.107,17.542L167.107,17.542z
	 M175.957,18.413c-3.572,0-5.871,2.322-5.871,5.894c0,3.728,2.366,5.938,6.429,5.938c1.451,0,3.103-0.313,4.308-0.803v-1.876
	c-1.496,0.514-2.723,0.781-3.862,0.781c-2.768,0-4.242-1.161-4.264-3.348h8.528v-1.116
	C181.225,20.444,179.283,18.413,175.957,18.413L175.957,18.413z M176.024,20.333c1.786,0,2.836,1.071,2.836,2.969h-6.162
	C172.765,21.493,174.059,20.333,176.024,20.333L176.024,20.333z M195.856,24.396c0-3.616-2.59-5.983-6.519-5.983
	c-3.818,0-6.452,2.388-6.452,5.894c0,3.527,2.567,5.938,6.34,5.938C193.089,30.245,195.856,27.833,195.856,24.396L195.856,24.396z
	 M193.156,24.374c0,2.344-1.541,3.929-3.795,3.929c-2.299,0-3.818-1.563-3.818-4.018c0-2.411,1.563-3.929,3.818-3.929
	C191.638,20.355,193.156,21.917,193.156,24.374z"/>
<path class="st1" d="M91.373,17.364v-2.255c-1.295-0.357-2.813-0.603-4.665-0.603c-4.599,0-8.706,2.455-8.706,7.947
	c0,4.51,2.723,7.791,8.996,7.791c1.92,0,3.46-0.246,4.732-0.603v-2.188c-1.607,0.468-2.835,0.625-4.286,0.625
	c-4.621,0-6.63-2.366-6.63-5.715c0-3.527,2.455-5.692,6.452-5.692C88.716,16.671,90.078,16.962,91.373,17.364L91.373,17.364z
	 M98.95,18.413c-3.572,0-5.871,2.322-5.871,5.894c0,3.728,2.366,5.938,6.429,5.938c1.451,0,3.103-0.313,4.308-0.803v-1.876
	c-1.496,0.514-2.723,0.781-3.862,0.781c-2.768,0-4.242-1.161-4.264-3.348h8.528v-1.116C104.218,20.444,102.276,18.413,98.95,18.413
	L98.95,18.413z M99.017,20.333c1.786,0,2.836,1.071,2.836,2.969h-6.162C95.757,21.493,97.052,20.333,99.017,20.333L99.017,20.333z
	 M115.368,29.932h2.59v-7.3c0-2.79-1.563-4.219-4.264-4.219c-1.785,0-3.348,0.647-4.576,1.63h-0.045v-1.406h-2.366v11.296h2.567
	v-8.551c0.916-0.625,2.098-0.982,3.237-0.982c1.898,0,2.858,0.803,2.858,2.523V29.932L115.368,29.932z M124.396,26.829v-6.384h4.153
	v-1.808h-4.153v-3.103h-2.59v3.103h-2.277v1.808h2.277v6.34c0,2.277,1.339,3.46,3.818,3.46c0.893,0,2.009-0.134,2.746-0.313v-1.921
	c-0.781,0.201-1.451,0.29-2.031,0.29C125.021,28.303,124.396,27.855,124.396,26.829L124.396,26.829z M137.911,20.779v-2.366
	c-1.719,0-3.036,0.625-4.688,2.255h-0.067v-2.031h-2.366v11.296h2.567v-7.701C134.696,21.292,136.326,20.779,137.911,20.779
	L137.911,20.779z M151.627,24.396c0-3.616-2.59-5.983-6.519-5.983c-3.818,0-6.452,2.388-6.452,5.894c0,3.527,2.567,5.938,6.34,5.938
	C148.859,30.245,151.627,27.833,151.627,24.396L151.627,24.396z M148.926,24.374c0,2.344-1.541,3.929-3.796,3.929
	c-2.299,0-3.818-1.563-3.818-4.018c0-2.411,1.563-3.929,3.818-3.929C147.409,20.355,148.926,21.917,148.926,24.374z"/>
<path class="st2" d="M1,34C1,15.825,15.824,1,34,1s33,14.825,33,33c0,18.176-14.824,33-33,33S1,52.176,1,34z"/>
<path class="st3" d="M30.703,1.18L30.703,1.18L30.703,1.18L30.703,1.18C30.703,1.179,30.703,1.18,30.703,1.18
	c-0.002,0-0.005,0.001-0.005,0.001S30.702,1.18,30.703,1.18L30.703,1.18z M28.152,1.53L28.152,1.53
	c0.016-0.003,0.036-0.007,0.052-0.01c-0.013,0.002-0.031,0.005-0.044,0.007c-0.322,0.053-1.194,0.235-1.278,0.266
	c0.041,0,0.08-0.015,0.121-0.021c-0.005,0.002-0.011,0.004-0.016,0.005c0.231-0.048,0.459-0.105,0.69-0.153
	c-0.011,0.003-0.022,0.005-0.034,0.008c0.005-0.001,0.011-0.002,0.015-0.003c-0.108,0.024-0.174,0.04-0.256,0.06
	c0.216-0.035,0.427-0.09,0.641-0.136C28.08,1.545,28.116,1.537,28.152,1.53L28.152,1.53z M31.702,1.261L31.702,1.261
	c-0.036-0.037-0.036-0.037-1.215,0.088c-0.019,0.001-0.019,0.001-0.048-0.006c-0.047-0.016-0.047-0.016-0.166-0.004
	c0.059-0.013,0.138-0.03,0.198-0.043c-0.246,0.021-0.492,0.016-0.738,0.04l-0.019,0.012c-0.002,0.003-0.006,0.006-0.008,0.009
	c0.017,0.014,0.021,0.017,0.137,0.005l0,0l0,0l0,0l0,0l0,0l0,0l0,0l0,0c0.184-0.021,0.191-0.022,0.207-0.004
	c0.014,0,0.033,0,0.048-0.001c-0.095,0.052-0.097,0.055-0.116,0.08c0.011,0.012,0.03,0.033,0.182,0.023
	c0.052-0.003,0.122-0.009,0.175-0.014c0.048-0.005,0.078-0.021,0.11-0.038c0.004-0.002,0.008-0.006,0.012-0.006
	c0.033-0.002,0.058,0.024,0.09,0.022c0.208-0.011,0.412-0.041,0.619-0.061c0.106-0.024,0.106-0.024,0.145-0.019
	c-0.003,0.003-0.008,0.007-0.012,0.01c0.003,0,0.351-0.027,0.401-0.038c-0.01-0.004-0.023-0.01-0.032-0.017
	c0.002-0.004,0.005-0.008,0.007-0.012c-0.003,0.001-0.008,0.002-0.011,0.003c0.005-0.006,0.013-0.012,0.02-0.015
	c-0.002,0.003-0.005,0.008-0.008,0.011c0.011-0.003,0.022-0.007,0.033-0.01C31.71,1.273,31.706,1.266,31.702,1.261L31.702,1.261z
	 M28.367,1.583c-0.109,0.033-0.26,0.078-0.359,0.099c-0.013,0.003-0.03,0.006-0.043,0.008c-0.05,0.009-0.101,0.009-0.151,0.015
	c-0.313,0.034-0.61,0.148-0.922,0.185c0.247-0.078,0.247-0.078,0.335-0.091c0.026-0.008,0.053-0.017,0.072-0.024
	c-0.047,0.008-0.047,0.008-0.055,0.006c0.028-0.016,0.062-0.018,0.09-0.034c-0.283,0.076-0.297,0.078-0.336,0.074
	c-0.03,0.002-0.071,0.005-0.101,0.006c0.06-0.016,0.121-0.031,0.183-0.046c0.629-0.156,0.665-0.155,0.73-0.152
	c-0.038,0.019-0.04,0.024-0.044,0.034c0.04,0.028,0.247-0.033,0.248-0.033c-0.011,0-0.021,0.003-0.031,0.003
	c0.003-0.001,0.007-0.003,0.01-0.005c0.214-0.075,0.214-0.075,0.437-0.117c0.008-0.001,0.02-0.003,0.028-0.004
	c-0.214,0.07-0.214,0.07-0.219,0.08c0.08-0.008,0.156-0.034,0.238-0.037C28.443,1.559,28.4,1.573,28.367,1.583L28.367,1.583
	L28.367,1.583z M29.288,1.485L29.288,1.485l0.082-0.023c0.044-0.027,0.1-0.035,0.132-0.081c-0.005-0.002-0.005-0.002-0.018,0
	c-0.325,0.047-0.325,0.047-0.342,0.061c0.004,0,0.004,0,0.018-0.002c-0.014,0.016-0.044,0.028-0.044,0.028s-0.021-0.001-0.025-0.012
	c-0.011-0.027-0.077-0.003-0.121,0.013c-0.082,0.029-0.082,0.029-0.099,0.023c0.001-0.013,0.014-0.018,0.019-0.028
	c-0.038-0.015-0.164,0.016-0.203,0.056c0,0.002,0,0.004,0,0.005c0.028,0.016,0.118,0.005,0.317-0.02
	c-0.039,0.021-0.08,0.038-0.081,0.038c0.005-0.006,0.005-0.006,0.054-0.034c-0.019,0.003-0.099,0.045-0.108,0.052
	c0.015,0.016,0.321-0.037,0.324-0.038C29.227,1.519,29.255,1.496,29.288,1.485L29.288,1.485z M29.52,1.514
	c-0.005,0.001-0.01,0.001-0.016,0.002c-0.026-0.009-0.06-0.022-0.085-0.032c0.099-0.017,0.197-0.047,0.297-0.063
	c0.093-0.012,0.098,0.007,0.067,0.067L29.52,1.514L29.52,1.514L29.52,1.514z M31.741,1.283L31.741,1.283
	c-0.001-0.001-0.009-0.005-0.02-0.005h0.001C31.739,1.285,31.742,1.284,31.741,1.283L31.741,1.283L31.741,1.283z M26.292,2.054
	L26.292,2.054c0.018-0.006,0.042-0.013,0.059-0.019c-0.007,0-0.016-0.001-0.023-0.001c0.018-0.014,0.018-0.014,0.065-0.038
	c-0.089-0.048-0.163,0.037-0.248,0.028c0.001-0.004,0.002-0.01,0.003-0.014C26.136,2,26.136,2,26.092,2.008
	c-0.577,0.114-1.739,0.528-1.87,0.575c0.083-0.026,0.09-0.026,0.111-0.028c-0.075,0.062-0.168,0.096-0.251,0.144
	c0.151,0.003,0.281-0.077,0.422-0.114c0.512-0.149,1.017-0.319,1.531-0.461C26.201,2.083,26.201,2.083,26.292,2.054L26.292,2.054z
	 M37.058,66.707l0.027-0.009l0.093-0.029L37.058,66.707L37.058,66.707z M15.14,6.906L15.14,6.906l0.002-0.001l0.001-0.001
	l0.001-0.001L15.14,6.906L15.14,6.906z M15.084,6.945L15.084,6.945l0.056-0.039l-0.128,0.09l0.02-0.014
	C15.047,6.971,15.068,6.956,15.084,6.945L15.084,6.945z M22.647,3.727c0.02-0.012,0.047-0.029,0.067-0.041
	c-0.522,0.191-0.522,0.191-0.555,0.161c0.016-0.041,0.079-0.081,0.08-0.081c0.038-0.019,0.081-0.005,0.12-0.02
	c0.074-0.029,0.14-0.072,0.212-0.108c-0.174,0.034-0.305,0.072-0.666,0.188c-0.238,0.076-0.481,0.13-0.72,0.206
	c0,0-0.082,0.052-0.124,0.084c0.012,0.002,0.012,0.002,0.108-0.026c0.552-0.16,0.552-0.16,0.613-0.132
	c-0.13,0.052-0.304,0.122-0.434,0.175c-0.144,0.065-0.289,0.132-0.432,0.199c-0.018,0.008-0.036,0.016-0.054,0.025
	c0.076-0.013,0.154,0.001,0.229-0.026c0.205-0.074,0.392-0.194,0.607-0.243c-0.055,0.035-0.111,0.071-0.167,0.107
	c-0.172,0.046-0.184,0.052-0.381,0.148c0.181-0.038,0.347-0.122,0.524-0.173c0.082-0.054,0.164-0.107,0.247-0.16
	C22.249,3.961,22.269,3.958,22.647,3.727L22.647,3.727L22.647,3.727z M32.11,10.134c0.037,0.007,0.087,0.014,0.124,0.021
	c-0.066-0.266-0.215-0.503-0.279-0.769c-0.121,0.022-0.233,0.094-0.363,0.07c-0.221-0.04-0.277-0.099-0.327-0.173
	c-0.097-0.142-0.151-0.152-0.641-0.122h-0.001h-0.001h-0.001h-0.001H30.62h-0.001h-0.001h-0.001
	c-0.222,0.023-0.443,0.049-0.665,0.072c-0.045,0.129-0.052,0.142-0.09,0.154c-0.052,0.002-0.097,0.004-0.171,0.049
	c-0.374,0.23-0.797,0.364-1.166,0.604c-0.274,0.178-0.274,0.178-0.426,0.431c0.06-0.03,0.187-0.094,0.33-0.137
	c0.106-0.032,0.106-0.032,0.494,0.008C29.49,10.4,29.854,9.931,30.349,9.8c-0.269,0.347-0.269,0.347-0.281,0.381
	c0.067-0.035,0.226-0.118,0.301-0.12c0.048-0.001,0.081-0.002,0.133,0.067c0.073,0.096,0.14,0.158,0.397,0.137
	c0.339-0.028,0.64-0.23,0.989-0.215C31.968,10.054,32.031,10.119,32.11,10.134L32.11,10.134L32.11,10.134z M34.971,10.823
	L34.971,10.823c0.002,0.031,0.001,0.072,0.002,0.103c-0.348-0.013-0.638-0.219-0.968-0.291c0.26,0.26,0.26,0.26,0.263,0.294
	c-0.111,0.13-0.149,0.175-0.207,0.389c-0.077,0.352-0.077,0.352-0.176,0.463c-0.19-0.053-0.19-0.053-0.498-0.532
	c-0.44,0.285-0.44,0.285-0.578,0.337c0.259-0.719,0.259-0.719,0.176-0.824c-0.212-0.266-0.581-0.246-1.009-0.223
	c-0.035,0.129-0.095,0.253-0.105,0.389c-0.099,0.05-0.218,0.031-0.316,0.088c-0.088,0.051-0.114,0.089-0.172,0.195
	c-0.143,0.262-0.08,0.511-0.007,0.798c0.149,0.586,0.028,0.737-0.686,0.854c-0.242-0.733-0.257-0.777-0.145-1.236
	c0.025-0.145,0.118-0.354,0.056-0.487c-0.037-0.08-0.022-0.133-0.022-0.133c0.039-0.124,0.1-0.199,0.255-0.306
	c0.327-0.227,1.071-0.29,1.517-0.327c0.038-0.004,0.048-0.009,0.1-0.034c0.19-0.092,0.72-0.292,1.538-0.151
	C34.934,10.349,34.958,10.657,34.971,10.823L34.971,10.823z M31.906,10.936c0-0.002-0.001-0.009-0.035-0.001
	c0.001,0.002,0.002,0.004,0.003,0.006C31.884,10.953,31.905,10.943,31.906,10.936L31.906,10.936L31.906,10.936z M35.715,11.799
	c0.014-0.023,0.03-0.056,0.042-0.08c-0.359,0.032-0.365,0.034-0.506,0.097c-0.003,0.001-0.317,0.138-0.486,0.158
	c-0.047,0.002-0.083-0.043-0.132-0.03c-0.036,0.01-0.109,0.037-0.358,0.162c-0.562,0.283-0.562,0.283-0.809,0.3
	c-0.108,0.008-0.141,0.01-0.234,0.018c0.136,0.271,0.29,0.397,0.709,0.291c0.148-0.037,1.322-0.546,1.42-0.596
	C35.571,12.012,35.664,11.885,35.715,11.799L35.715,11.799L35.715,11.799z M28.882,1.872c-0.06,0.042-0.122,0.063-0.202,0.088
	c-0.133,0.03-0.309,0.106-0.445,0.098c-0.063-0.004-0.092-0.067-0.148-0.085c-0.05-0.016-0.104,0.003-0.154-0.013
	c-0.005-0.002-0.012-0.004-0.018-0.007c-0.017-0.008-0.006-0.026-0.01-0.039c-0.002,0-0.005,0-0.006,0.001
	c0.121-0.078,0.213-0.054,0.214-0.053c0.095,0.031,0.096,0.032,0.289-0.051C28.33,1.8,28.33,1.8,28.27,1.806
	c0.03-0.017,0.061-0.033,0.091-0.049c0.093-0.021,0.584-0.111,0.587-0.111c0.044-0.006,0.086,0.011,0.13,0.008
	c-0.144,0.071-0.144,0.071-0.345,0.117c0.127,0.022,0.127,0.022,0.145,0.047c0.061-0.06,0.061-0.06,0.127-0.078
	C28.965,1.793,28.937,1.833,28.882,1.872L28.882,1.872L28.882,1.872z M27.51,2.358L27.51,2.358c0.009-0.007,0.021-0.016,0.029-0.023
	c-0.176,0.006-0.341-0.058-0.513-0.074c0.19-0.092,0.322-0.275,0.534-0.332c0.037-0.01,0.2-0.059,0.201-0.059
	c0.03-0.017,0.042-0.033,0.051-0.046c-0.028-0.006-0.028-0.006-0.068,0c-0.237,0.042-0.237,0.042-0.287,0.106
	c-0.19,0.009-0.19,0.009-0.257,0.016c-0.182,0.08-0.32,0.248-0.536,0.258c-0.001-0.005-0.003-0.012-0.005-0.018
	c0.062-0.045,0.135-0.074,0.19-0.13c-0.001,0-0.11-0.033-0.175,0.025c-0.094,0.089-0.204,0.038-0.208,0.036
	c0.002-0.006,0.004-0.013,0.005-0.019c-0.153-0.029-0.281,0.062-0.421,0.093c0.104-0.045,0.211-0.081,0.316-0.123
	c-0.2,0.035-0.394,0.092-0.594,0.129l0,0l0,0l0,0l0,0l0,0l0,0l0,0l0,0l-0.37,0.116c-0.149,0.055-0.301,0.102-0.45,0.156
	c0.001,0.001,0.003,0.003,0.004,0.004c0.011,0.02,0.011,0.02,0.361-0.042c-0.027,0.012-0.055,0.024-0.082,0.036
	c-0.004,0.001-0.457,0.094-0.578,0.16c0.003,0.006,0.006,0.013,0.009,0.019c0.042,0.001,0.042,0.001,0.594-0.087
	c0.074-0.007,0.149,0.003,0.224-0.006c-0.111,0.044-0.111,0.044-0.498,0.101l0,0l0,0l0,0l0,0l0,0l0,0l0,0l0,0
	c-0.437,0.075-0.678,0.116-0.754,0.257c0.134,0.045,0.259-0.043,0.39-0.033c0,0.006-0.001,0.014-0.002,0.02
	c-0.047,0.038-0.099,0.068-0.144,0.108c0.051,0.029,0.051,0.029,0.2,0.003c0.223-0.039,0.588-0.124,0.881-0.193
	c0.19-0.044,0.36-0.148,0.554-0.18c0.01-0.002,0.023,0.006,0.032,0.009c0.252,0.073,0.451,0.06,0.575,0.037
	c0.181-0.035,0.278-0.075,0.415-0.146c-0.061-0.039-0.073-0.04-0.278,0.035c0.161-0.097,0.286-0.153,0.404-0.135
	C27.382,2.458,27.382,2.458,27.51,2.358L27.51,2.358z M26.478,2.11c-0.001,0-0.002-0.002-0.002-0.008h0.001h0.001
	C26.479,2.103,26.479,2.11,26.478,2.11L26.478,2.11L26.478,2.11z M27.887,1.921L27.887,1.921c0.004-0.002,0.007-0.004,0.011-0.006
	c0,0,0,0-0.001,0c-0.007,0.003-0.013,0.007-0.013,0.008C27.885,1.923,27.886,1.922,27.887,1.921L27.887,1.921z M33.208,1.962
	L33.208,1.962l-0.001,0.001C33.207,1.963,33.207,1.963,33.208,1.962L33.208,1.962z M32.166,1.051c0.103-0.006,0.196-0.01,0.28-0.014
	h0.009l0.232-0.01l0.019-0.001h0.003l0.015-0.001h0.002h0.006h0.009h0.002h0.006h0.008h0.003c0.085-0.003,0.165-0.006,0.244-0.008
	h0.001h0.01h0.005h0.005c0.071-0.002,0.167-0.004,0.308-0.008h0.002h0.002h0.009l0.112-0.002h0.009h0.002
	c0.074-0.001,0.158-0.002,0.245-0.003C33.822,1,33.969,1,34.229,1c0.242,0.002,0.531,0.008,0.81,0.016
	c0.141,0.005,0.322,0.012,0.571,0.021l0.132,0.007c0.33,0.018,0.721,0.049,1.026,0.069c0.315,0.029,0.714,0.072,1.423,0.149
	c0.157,0.023,0.324,0.049,0.497,0.076c0.817,0.13,1.765,0.305,2.508,0.448l0.346,0.079l0,0c0.023,0.008,0.051,0.023,0.073,0.032
	c0.02,0.009,0.046,0.02,0.066,0.028c-0.086-0.015-0.086-0.015-0.341-0.071c0.203,0.051,0.883,0.233,1.144,0.408
	c0.004,0.024,0.009,0.056,0.014,0.08c-0.29-0.109-0.29-0.109-0.378-0.126c0.108,0.043,0.218,0.082,0.326,0.123
	c-0.078-0.003-0.158-0.006-0.241-0.009c0.139,0.053,0.139,0.053,0.194,0.112c-0.021-0.001-0.05-0.003-0.071-0.004l0.33,0.081
	c0.018,0.008,1.927,0.935,2.124,1.25c-0.506,0.04-0.927-0.476-1.465-0.221c-1.598-0.843-3.428-1.033-5.051-1.803
	c0.206,0.024,0.206,0.024,0.34,0.023c-0.171-0.054-0.339-0.116-0.511-0.167l-0.023-0.003c-0.224-0.025-0.522-0.058-0.744-0.083
	c0.302,0.052,0.348,0.057,0.498,0.067c0.059,0.017,0.118,0.033,0.136,0.053C37.93,1.65,37.93,1.65,37.43,1.623
	c-0.11-0.034-0.222-0.067-0.333-0.098c0.049-0.002,0.098-0.003,0.146-0.004c-0.102-0.02-0.239-0.046-0.342-0.066
	c0.244-0.001,0.485,0.029,0.729,0.031c-0.043-0.01-0.101-0.021-0.144-0.029c-0.399-0.047-0.809,0.021-1.202-0.109
	c0.01-0.01,0.024-0.023,0.034-0.033c-0.126,0.003-0.126,0.003-0.498-0.064c0.048,0.002,0.113,0.006,0.161,0.01
	c-0.144-0.034-0.292-0.039-0.438-0.061c-0.625-0.08-1.503-0.169-2.137-0.132c-0.005,0-0.692,0.035-1.055,0.02
	c0.064-0.009,0.149-0.023,0.214-0.034c-0.003,0-0.328,0.032-0.633,0.017c0.147-0.016,0.147-0.016,0.213-0.021H32.14L32.166,1.051
	L32.166,1.051z M31.583,1.089h0.001h0.001c0.016-0.001,0.032-0.002,0.048-0.004l-0.044,0.003h-0.003h-0.001L31.583,1.089
	L31.583,1.089z M30.293,1.21c0.107-0.012,0.213-0.023,0.306-0.033l0.005-0.001c0.089-0.009,0.178-0.017,0.267-0.027l0,0l0.049-0.005
	h0.001l0,0c0.055-0.003,0.127-0.011,0.185-0.017h0.003h0.001h0.002l0.202-0.017l0,0h0.005h0.002h0.003
	c0.077-0.006,0.172-0.013,0.256-0.02l-0.041,0.003h-0.002l0,0c-0.013,0.001-0.026,0.002-0.039,0.004
	c0.069-0.003,0.139-0.007,0.209-0.01c0.01,0.002,0.024,0.004,0.031,0.011c-0.016,0.006-0.027,0.01-0.14,0.019
	c0.002,0.001,0.006,0.001,0.008,0.002c0.006,0.002,0.013,0.006,0.018,0.009c-0.011,0.007-0.012,0.008-0.074,0.013
	c0.061,0.014,0.061,0.014,0.167,0.003c0.016,0.004,0.031,0.009,0.047,0.014C31.593,1.2,31.593,1.2,31.389,1.201
	c-0.306,0.023-0.306,0.023-0.368,0.038c-0.168,0.014-0.391,0.034-0.559,0.048c0.02-0.012,0.02-0.012,0.28-0.066
	c-0.039-0.005-0.043-0.007-0.055-0.014c-0.001-0.002-0.001-0.006-0.002-0.008c0.094-0.009,0.094-0.009,0.274-0.006
	c-0.036-0.017-0.036-0.017-0.214-0.011c0.036-0.014,0.076-0.01,0.111-0.027c0,0,0-0.001-0.001-0.001
	c-0.045,0.008-0.045,0.008-0.127,0.017c-0.025,0.009-0.025,0.009-0.037,0.011c-0.002,0-0.256,0.045-0.349,0.037
	c-0.013-0.001-0.03-0.001-0.043-0.003c0.055-0.014,0.111-0.016,0.167-0.024c0.006-0.001,0.013-0.002,0.019-0.003
	C30.42,1.196,30.357,1.205,30.293,1.21L30.293,1.21z M29.562,1.301c0.065-0.009,0.126-0.017,0.183-0.025
	c-0.003,0.001-0.006,0.001-0.009,0.002c0.023-0.003,0.047-0.007,0.07-0.01c-0.044,0.015-0.104,0.036-0.15,0.041l0,0
	c-0.078,0.009-0.08,0.008-0.083,0.007c0.008-0.003,0.017-0.004,0.024-0.008c-0.087-0.003-0.171,0.028-0.258,0.032
	c0.012-0.004,0.06-0.013,0.083-0.018c0.033-0.004,0.067-0.009,0.101-0.013c0.015-0.003,0.03-0.005,0.045-0.009L29.562,1.301
	L29.562,1.301z M15.429,6.707l0.006-0.004l0.88-0.579c0.208-0.129,0.394-0.245,0.565-0.349c0.484-0.292,1.005-0.59,1.437-0.824
	l0.001-0.001c0.596-0.311,1.316-0.651,2.616-1.265l0.025-0.011c0.665-0.22,1.341-0.4,1.998-0.643l0.095-0.038
	c-0.001,0.025-0.001,0.058-0.002,0.083c0.098-0.036,0.231-0.085,0.329-0.121l-0.252,0.147c0.2-0.068,0.2-0.068,1.163-0.044
	c-0.049,0.029-0.098,0.058-0.147,0.087c-0.098,0.036-0.23,0.083-0.328,0.119c0.317-0.018,0.317-0.018,1.073-0.175
	c0.196,0.042,0.196,0.042,0.859-0.175c-0.105-0.037-0.26,0.006-0.371,0.017c0.843-0.296,1.774,0,2.601-0.398
	c-0.118,0.004-0.276,0.009-0.393,0.013c0.263-0.1,0.664-0.214,0.932-0.125c-0.112,0.085-0.295,0.147-0.427,0.195
	c0.081,0.059,0.19,0.138,0.272,0.199c0.161-0.135,0.399-0.29,0.59-0.379c-0.008-0.042-0.02-0.097-0.028-0.139
	c-0.091-0.045-0.213-0.104-0.304-0.149c0.536-0.491,0.595-0.503,1.052-0.59c0.068,0.027,0.159,0.062,0.228,0.089
	c-0.198,0.044-0.457,0.123-0.646,0.197c-0.017,0.018-0.033,0.036,0.067,0.05c0.014,0.097,0.033,0.227,0.047,0.324l0.447,0.01
	l-0.046,0.216c0.135-0.065,0.317-0.153,0.452-0.219c0.053,0.088,0.124,0.206,0.178,0.294c0.103-0.003,0.24-0.008,0.343-0.011
	c-0.015-0.044-0.036-0.104-0.051-0.148c0.309-0.117,0.569-0.342,0.898-0.417c-0.823,0.059-1.19,0.034-1.431,0.018
	c0.105-0.035,0.247-0.082,0.353-0.117c-0.082-0.057-0.193-0.133-0.275-0.191c0.211-0.134,0.407-0.156,0.798-0.2
	c-0.062,0.079-0.145,0.184-0.208,0.263c0.098,0.012,0.23,0.028,0.328,0.04c-0.003-0.017-0.006-0.034-0.215-0.081
	c0.167-0.131,0.451-0.228,0.662-0.247c0.125,0.029,0.291,0.077,0.414,0.111l0.252-0.044c-0.112-0.055-0.279-0.085-0.4-0.115
	c0.371-0.003,0.733,0.08,1.099,0.117c0.166,0.029,0.391,0.036,0.559,0.035c0.488,0.088,0.987,0.093,1.474,0.183
	c-0.05,0.012-0.116,0.028-0.167,0.041c0.091,0.052,0.213,0.121,0.304,0.174c0.521,0.051,1.041,0.11,1.563,0.155
	c0.042,0.022,0.084,0.045,0.261,0.061c0.102,0.006,0.24,0.014,0.342,0.02c0.044,0.023,0.089,0.046-0.128,0.243
	c0.102,0.063,0.205,0.128,0.004,0.147c-0.747-0.159-0.747-0.159-1.026-0.093c0.004,0.001,0.691,0.21,1.498,0.402
	c0.039,0.029,0.078,0.058,0.034,0.236c0.084,0.039,0.196,0.091,0.279,0.13c-0.098-0.022-0.229-0.052-0.327-0.074
	c-0.331-0.057-0.777-0.135-1.112-0.115c0.678,0.161,0.678,0.161,0.93,0.353c-1.377-0.119-2.742-0.352-4.124-0.42
	c0.264-0.214,0.612-0.246,0.895-0.418c-0.022-0.026-0.045-0.051,0.022-0.096c0.084-0.061,0.197-0.142,0.282-0.204
	c-0.194-0.092-0.468-0.183-0.678-0.231c-0.184-0.029-0.43-0.056-0.616-0.071c0.02-0.009,0.046-0.021,0.066-0.03
	c-0.241-0.032-0.562-0.074-0.802-0.104l-0.127,0.115c-0.026,0.002-0.053,0.004-0.358-0.054c-0.097,0.025-0.227,0.059-0.323,0.085
	c0.085,0.176,0.279,0.373,0.447,0.47c-0.183,0.096-0.449,0.184-0.654,0.217l-0.571,0.099c0.001,0.027,0.003,0.054-0.073,0.097
	c-0.079,0.06-0.186,0.14-0.265,0.201c-0.313,0.33-0.385,0.336-0.785,0.372l0,0l0,0l0,0l0,0l0,0l0,0l0,0l0,0
	C27.96,4.376,27.96,4.376,27.61,4.937c0.027,0.106,0.062,0.249,0.089,0.355c0.102-0.013,0.238-0.03,0.34-0.043
	c0.134,0.162,0.311,0.382,0.44,0.549c0.203-0.064,0.485-0.113,0.697-0.128c1.186,0.226,2.394,0.287,3.579,0.512
	c0.265,0.729,0.265,0.729,0.43,0.952l0.885,0.473c0.053,0.025,0.123,0.058,0.176,0.083c0.194-0.12,0.421-0.334,0.558-0.516
	c-0.154-0.32-0.361-0.746-0.516-1.065c0.274-0.141,0.62-0.382,0.82-0.616c-0.293-0.773-0.981-1.269-1.385-1.965
	c0.011-0.002,1.164-0.235,2.132,0.055c0.885,0.156,1.586,0.854,2.522,0.86c0.134-0.152,0.242-0.426,0.247-0.629
	c0.462,0.184,0.512,0.203,1.247,0.538c2.176,1.168,2.176,1.168,3.338,1.271c-0.029,0.064-0.066,0.149-0.095,0.214
	c1.284,0.12,1.44,0.542,1.592,0.95c-4.774,1.907-4.774,1.907-4.83,2.181c1.503-0.917,1.916-1.041,2.488-0.619
	c-0.177,0.13-0.443,0.264-0.654,0.325c0.195,0.047,0.47,0.058,0.668,0.02c0.515,1.211,1.758,0.962,2.002,0.9
	c0.051-0.193,0.181-0.436,0.313-0.585c0.125,0.178,0.278,0.427,0.369,0.625c-0.104,0.025-0.243,0.059-0.347,0.084
	c-0.5,0.325-1.208,0.721-1.613,1.157c-0.111-0.038-0.259-0.088-0.37-0.126c-0.01-0.151-0.022-0.353-0.032-0.505
	c0.204-0.125,0.509-0.247,0.745-0.279c-0.016-0.03-0.032-0.059-0.183-0.082c-0.05,0.002-1.72,0.56-2.181,0.728
	c-0.191,0.134-0.436,0.328-0.601,0.493c0.036,0.299,0.121,0.734,0.335,0.946c-0.1,0.02-0.235,0.047-0.336,0.068l-1.291,0.326
	c0.102,0.062,0.24,0.144,0.342,0.206c-0.108,0.026-0.253,0.06-0.361,0.086c-0.155,0.303-0.2,0.657-0.428,0.925
	c-0.105-0.006-0.247-0.013-0.352-0.019c0.12,0.191,0.237,0.49,0.23,0.716c-0.096,0.086-0.224,0.202-0.32,0.288
	c-0.004-0.103-0.008-0.241-0.012-0.344c-0.11-0.007-0.258-0.016-0.368-0.022c0.335,1.198,0.497,1.361,0.72,1.588
	c-0.295,0.208-0.487,0.541-0.836,0.684c-2.718,2.235-2.77,2.277-2.12,3.34c1.465,2.396,1.211,2.814,0.618,3.218
	c-1.231-0.56-1.149-2.07-2.073-2.853c-0.19-0.108-0.442-0.254-0.632-0.362c-0.204,0.084-0.473,0.198-0.675,0.285
	c-0.605-0.359-0.668-0.36-1.162-0.367C30.091,20,30.091,20,29.907,20.061c-0.027,0.097-0.063,0.228-0.09,0.325
	c0.024,0.142,0.055,0.332,0.079,0.474c-2.455-0.369-3.663,0.049-3.975,0.186c-0.35,1.058-1.86,1.474-1.594,2.874
	c-0.275,0.341-1.505,2.185,1.282,4.969c1.116,0.351,2.215-0.107,3.323-0.073c0.35-0.998,0.585-1.603,0.792-2.137
	c1.652-0.596,1.95-0.703,2.433-0.259c-0.086,0.761-0.463,1.465-0.43,2.25c-0.089-0.069-0.21-0.161-0.299-0.231
	c-0.04-0.04-0.094-0.094-0.134-0.134c0.138,0.83,0.138,0.83-0.229,2.361c3.663-0.463,4.425-0.56,4.291,1.109
	c-0.345,4.308,1.587,3.956,2.188,3.745c1.025-0.666,2,0.094,3.001,0.108c0.91-1.873,0.91-1.873,1.379-2.109
	c0.817-0.269,1.373-1.039,2.258-1.181c-0.016,0.251-0.169,0.571-0.314,0.775c0.07,0.13,0.163,0.305,0.234,0.436
	c0.909-0.527,0.943-0.612,0.936-1.117c0.492,0.389,1.181,0.526,1.494,1.148c1.249-0.12,2.505-0.171,3.747-0.349
	c-0.032,0.096-0.074,0.226-0.106,0.322c1.491,1.009,2.09,3.215,4.33,3.219c0.887,0.002,1.033,0.101,1.666,0.629
	c0.553,0.729,0.477,1.74,1.095,2.439c-0.026,0.218-0.054,0.435-0.189,0.701c-0.094,0.087-0.219,0.204-0.313,0.291
	c0,0.111,0,0.261,0,0.372c0.71,0.032,0.71,0.032,1.05,0.188c-0.122,0.271-0.286,0.632-0.409,0.904
	c0.155-0.182,0.29-0.494,0.484-0.632c0.123-0.087,1.528,0.015,1.333,1.388c1.48-0.551,1.67,1.51,2.748,1.917
	c-0.075,0.765-0.323,1.46-0.518,1.91l0,0c-0.218,0.485-2.568,3.266-2.588,3.287c-0.76,0.896-1.185,2.005-1.878,2.943
	c-0.95,1.197-0.95,1.197-1.327,1.569c-0.926,0.939-0.926,0.939-1.312,1.21c-8.562,6.133-8.562,6.133-9.135,5.849
	c-0.968,0.471-1.484,1.671-2.732,1.694c-0.003-0.011-0.006-0.026-0.009-0.037c-0.065,0.083-0.151,0.194-0.217,0.277
	c-0.49,0.435-0.49,0.435-1.056,0.478c-0.068,0.083-0.159,0.195-0.228,0.278c-0.01,0.013-0.01,0.013-0.782,0.636
	c-0.576,0.343-1.1,0.768-1.714,1.047c-0.484,0.23-0.484,0.23-0.933,0.439c-0.139,0.052-0.328,0.114-0.47,0.159l-0.015,0.004
	l0.266-0.118l0.175-0.131l0.174-0.117l0,0l0,0l0,0l0,0l0,0l0,0c0,0,0,0,0.121-0.144c0.073-0.08,0.171-0.188,0.244-0.268
	c0.012-0.001,0.024-0.002,0.116-0.054l0.215-0.166l0.03-0.029c-0.023-0.021-0.053-0.049-0.076-0.069
	c0.17-0.15,0.396-0.35,0.567-0.499c-0.054,0.089-0.125,0.209-0.18,0.298c0.224-0.253,0.511-0.61,0.656-0.915
	c-0.111,0.142-0.292,0.308-0.438,0.414c3.293-4.022,5.019-9.79,4.976-10.734c-0.088-1.923-2.175-2.079-2.98-3.368
	c-0.741-1.188-1.113-2.571-1.966-3.699c-0.227-0.3-0.603-0.396-0.875-0.634c-0.175-1.372-0.175-1.372,0.598-1.913
	c-0.02-0.103-0.046-0.24-0.066-0.343c-0.182-0.066-0.391-0.257-0.482-0.426c-0.1-0.799,0.467-1.47,0.436-2.257
	c0.372-0.189,0.372-0.189,1.041-1.262c0.228-0.339,0.533-0.792,0.76-1.131c-0.972-4.447-1.376-4.059-2.458-3.021
	c0.074,0.083,0.173,0.194,0.247,0.277c-0.033,0.1-0.076,0.234-0.109,0.334c-0.192,0.007-0.452-0.059-0.619-0.154
	c-2.226-1.275-2.662-1.374-3.048-1.462h-0.001h-0.001h-0.001h-0.001h-0.001h-0.001h-0.001c0,0-0.001,0-0.018,0.002
	c-0.148-0.061-0.346-0.141-0.494-0.203c-0.176-0.722-0.299-0.852-0.569-1.136c-0.37-0.307-0.728-0.628-1.095-0.94
	c0.005-0.099,0.011-0.232,0.016-0.332c-0.7,0.234-0.7,0.234-1.392,0.055c-1.232-0.2-1.232-0.2-3.396-1.525
	c-1.002-0.614-1.847,0.414-2.803,0.269c-5.906-1.726-5.906-1.726-6.061-3.619c-0.247-0.64-0.707-1.832-2.504-2.719
	c0.207-1.076-1.305-1.922-1.687-1.995c0.153-0.672,0.232-1.795-0.966-1.766c-0.461,1.963,1.226,3.092,1.807,4.651l0.229,0.243
	l0.549,0.677c-0.131,0.099-0.307,0.231-0.439,0.33c-0.235-0.587-0.298-0.745-1.227-1.252c0.017-0.301,0.036-0.601,0.057-0.899
	c-0.445-0.27-1.038-0.631-1.486-0.899c0.161-0.152,0.376-0.355,0.537-0.508c-0.004-0.039-0.559-3.861-2.431-3.78
	c0.002-0.016-0.087-2.673-0.263-3.449c3.15-4.837,3.15-4.837,3.296-5.021l0.009-0.307c-0.098-0.049-0.229-0.114-0.327-0.163
	c0.013,0.1,0.031,0.235,0.044,0.336c-0.057,0.123-0.134,0.288-0.192,0.411c-0.088-0.051-0.205-0.118-0.293-0.17
	c-0.075-0.253-0.05-0.614-0.063-0.878c0.098,0.008,0.229,0.02,0.326,0.028c0.008-0.26,0.097-0.604,0.194-0.847
	c0.021-0.392,0.021-0.392,0.503-0.862l0.198-0.419c-0.024,0.006-0.048,0.011-0.13,0.077c-0.099,0.044-0.233,0.102-0.332,0.146
	c0.185-0.188,0.433-0.435,0.63-0.61c-0.056,0.027-0.13,0.063-0.186,0.09c0.082-0.064,0.192-0.15,0.273-0.216
	c0.19-0.131,0.431-0.327,0.59-0.494l-0.549,0.41c0.247-0.218,0.575-0.508,0.812-0.734c-0.406,0.332-0.406,0.332-1.294,1.138
	c0.542-0.656,0.542-0.656,0.889-0.83c-0.001-0.065-0.003-0.153-0.004-0.219c0.078-0.079,0.183-0.186,0.261-0.265l-0.086-0.005
	c-0.042,0.001-0.098,0.002-0.14,0.002L15.429,6.707L15.429,6.707z M33.737,2.237c-0.043-0.046-0.085-0.091-0.128-0.134
	c-0.104-0.001-0.208-0.019-0.312-0.009c-0.135,0.02-0.154,0.08-0.072,0.221C33.392,2.327,33.624,2.308,33.737,2.237L33.737,2.237z
	 M32.719,3.263L32.719,3.263c0.015-0.003,0.036-0.006,0.051-0.009c-0.125-0.087-0.125-0.087-0.481-0.053
	c-0.042-0.103-0.056-0.137-0.126-0.157c-0.023-0.006-0.053-0.015-0.076-0.019c-0.166-0.029-0.166-0.029-0.807-0.085
	c-0.019-0.002-0.083-0.01-0.104-0.045c-0.023-0.038-0.043-0.044-0.21-0.064c-0.011,0.016-0.025,0.037-0.035,0.053
	c-0.076,0.134-0.098,0.211-0.1,0.45c-0.172,0.028-0.172,0.028-0.284,0.122c0.173-0.017,0.345-0.033,0.518-0.049
	c0.004,0.048,0.008,0.096,0.012,0.145c0.121-0.019,0.347-0.053,0.63-0.296c0.071-0.061,0.071-0.061,0.164-0.047
	c0.133,0.02,0.257,0.077,0.39,0.096c0.142,0.021,0.221,0.007,0.267-0.001C32.59,3.293,32.654,3.274,32.719,3.263L32.719,3.263z
	 M13.029,9.92L13.029,9.92c0,0.004-0.001,0.01-0.001,0.014c0.124-0.153,0.228-0.324,0.357-0.474
	c0.088-0.103,0.196-0.188,0.292-0.283c-0.051-0.033-0.121-0.077-0.21,0.015C13.172,9.508,13.046,9.719,13.029,9.92L13.029,9.92z
	 M47.958,9.058L47.958,9.058l-0.187-0.507c-0.295,0.109-0.289,0.053-0.283-0.018c0.003-0.036,0.009-0.091-0.08-0.078
	C47.37,8.461,47.37,8.461,47.27,8.565c-0.152-0.263-0.152-0.263,0.011-0.337C47.12,8.085,47.12,8.085,47.1,8.076
	c-0.092,0.065-0.092,0.065-0.166,0.079c-0.074-0.098-0.074-0.098-0.272-0.4c-0.155,0.004-0.363,0.01-0.52,0.014l-0.028,0.005
	l-0.111-0.009c-0.239-0.045-0.239-0.045-0.517-0.294c-0.124,0.049-0.128,0.054-0.226,0.169c-0.052-0.234-0.12-0.545-0.173-0.778
	c-0.068,0.002-0.136,0.004-0.205,0.007c-0.193,0.022-0.193,0.022,0.008,1.296c0.056,0.25,0.053,0.251-0.088,0.309
	c0.014,0.039,0.079,0.168,0.311,0.181c0.012,0.001,1.379,0.016,1.648-0.073c0.002,0.01,0.005,0.024,0.007,0.035
	c0.015,0.068,0.015,0.068-0.011,0.145c0.112-0.083,0.261-0.194,0.373-0.277c0.154,0.201,0.154,0.201,0.323,0.504
	c0.037-0.073,0.054-0.107,0.075-0.104C47.687,8.904,47.811,9.01,47.958,9.058L47.958,9.058z M29.815,20.383L29.815,20.383
	c0.001-0.044-0.045-0.136-0.052-0.139l0,0c-0.003,0.009,0.036,0.099,0.048,0.126C29.812,20.374,29.814,20.379,29.815,20.383
	L29.815,20.383z M41.363,26.496L41.363,26.496c0.055-0.009,0.128-0.016,0.184-0.023c-0.276-0.271-0.276-0.271-2.875-1.308
	c-0.601-0.151-1.162-0.429-1.771-0.552c-0.179-0.036-0.448-0.09-1.12-0.031c-1.364,0.127-1.647,0.48-1.932,1.201
	c0.24-0.123,0.559-0.289,0.798-0.412c0.578-0.364,0.578-0.364,1.074-0.411c0.015,0.02,0.04,0.044,0.063,0.055
	c0.008-0.008,0.02-0.019,0.028-0.026c-0.018,0.094-0.025,0.135-0.048,0.36c0.834-0.033,1.646,0.219,2.48,0.186
	c0.072,0.27,0.123,0.465,0.265,0.555c0.262,0.167,0.571,0.071,0.849,0.152c-0.013,0.057-0.013,0.057-0.318,0.56
	c0.121-0.01,0.217-0.019,0.34-0.035c0.315-0.041,0.615-0.176,0.94-0.156C40.598,26.624,40.598,26.624,41.363,26.496L41.363,26.496z
	 M45.709,27.419L45.709,27.419c0.011-0.006,0.026-0.015,0.037-0.022c-0.086-0.185-0.119-0.254-0.148-0.274
	c-0.023-0.016-0.064-0.017-0.092-0.02c-0.081-0.009-0.256-0.049-0.517-0.22c-0.352-0.218-0.587-0.355-0.962-0.419
	c-0.033-0.006-0.078-0.008-0.112-0.008c-0.23,0.001-0.449,0.077-0.676,0.1c-0.235,0.024-0.45-0.101-0.683-0.087
	c-0.165,0.031-0.327,0.069-0.491,0.1c0.524,0.315,0.618,0.371,0.879,1.016c-0.463,0.022-0.925-0.045-1.388-0.035
	c0.011,0.089,0.021,0.179,0.031,0.268c0.199,0.034,0.756,0.095,1.651-0.07c0.061-0.011,0.061-0.011,0.085-0.009
	c0.026,0.146,0.127,0.241,0.441,0.469c0.165-0.504,0.165-0.504,0.203-0.525c0.125-0.068,0.87-0.209,1.151-0.206
	C45.592,27.484,45.592,27.484,45.709,27.419L45.709,27.419L45.709,27.419z M38.396,34.956L38.396,34.956
	c0-0.001-0.001-0.002-0.002-0.002s-0.002,0.001-0.001,0.001C38.394,34.957,38.395,34.957,38.396,34.956
	C38.396,34.957,38.396,34.957,38.396,34.956L38.396,34.956z M37.633,36.731L37.633,36.731L37.633,36.731
	c-0.003,0-0.006-0.001-0.009,0l0,0C37.624,36.732,37.626,36.732,37.633,36.731L37.633,36.731z M42.516,63.464L42.516,63.464
	c0.001-0.001,0.001-0.002,0.001-0.002h-0.001c-0.009,0.002-0.008,0.003-0.008,0.003C42.509,63.465,42.514,63.465,42.516,63.464
	L42.516,63.464z M37.211,66.643c0.006-0.003,0.012-0.005,0.018-0.008l0,0c-0.003,0.001-0.035,0.016-0.036,0.017
	C37.199,66.649,37.205,66.646,37.211,66.643L37.211,66.643L37.211,66.643z M31.906,10.936L31.906,10.936
	c0-0.002-0.001-0.006-0.016-0.005c-0.005,0.001-0.011,0.002-0.018,0.003c0.007,0.02,0.031,0.009,0.034,0.003
	C31.906,10.937,31.906,10.937,31.906,10.936L31.906,10.936z M48.662,59.837c0.018-0.018,0.007-0.028-0.013-0.028
	c-0.003,0-0.008,0-0.011,0c-0.031,0.004-0.085,0.021-0.097,0.086C48.559,59.892,48.637,59.861,48.662,59.837L48.662,59.837z
	 M44.581,34.446c0.025-0.313-0.371-0.578-0.562-0.704c-0.045,0.261-0.045,0.261-0.213,0.566c0.196,0.348,0.204,0.362,0.287,0.666
	C44.376,34.789,44.563,34.667,44.581,34.446z"/>
<path class="st4" d="M22.317,28.408c0.067,1.402,0.169,2.838,0.306,4.298c1.691,18.078,8.15,33.301,14.425,34.001
	c-6.418-0.683-12.993-15.892-14.684-33.97c-0.136-1.46-0.237-2.895-0.303-4.298C9.132,30.007,1.039,31.687,1.001,32.683l0.011-0.273
	c0.046-0.995,8.128-2.672,21.035-4.238c-0.659-14.95,2.611-26.244,7.919-26.926l0.031-0.004c-5.194,0.654-8.37,11.94-7.693,26.898
	c0.237-0.028,0.474-0.057,0.714-0.085c17.001-2.017,35.5-3.052,41.32-2.312c1.055,0.134,1.621,0.318,1.739,0.54
	c0.019,0.084,0.037,0.169,0.056,0.255c-0.129-0.219-0.695-0.398-1.735-0.531c-5.827-0.741-24.347,0.295-41.366,2.315
	C22.792,28.351,22.553,28.379,22.317,28.408z"/>
<radialGradient id="gradient" cx="20.5606" cy="590.3044" r="47.2026" fx="23.0272" fy="594.4285" gradientTransform="matrix(1.175 0 0 -1.175 -0.3778 706.9792)" gradientUnits="userSpaceOnUse">
	<stop  offset="0" style="stop-color:#FFFFFF;stop-opacity:0"/>
	<stop  offset="0.4" style="stop-color:#FFFFFF;stop-opacity:0"/>
	<stop  offset="1" style="stop-color:#000000;stop-opacity:0.7"/>
</radialGradient>
<path class="st5" d="M1,33.971C1,15.811,15.824,1,34,1s33,14.811,33,32.971S52.176,66.942,34,66.942S1,52.131,1,33.971z"/>
</svg>
